<?xml version="1.0" encoding="UTF-8" standalone="no"?>
<!DOCTYPE svg PUBLIC "-//W3C//DTD SVG 1.1//EN" "http://www.w3.org/Graphics/SVG/1.1/DTD/svg11.dtd">
<svg width="100%" height="100%" viewBox="0 0 180 180" version="1.1" xmlns="http://www.w3.org/2000/svg" xmlns:xlink="http://www.w3.org/1999/xlink" xml:space="preserve" xmlns:serif="http://www.serif.com/" style="fill-rule:evenodd;clip-rule:evenodd;stroke-linejoin:round;stroke-miterlimit:2;">
    <rect x="0" y="0" width="180" height="180" style="fill:rgb(2,45,46);"/>
    <g transform="matrix(1,0,0,1,0,-6)">
        <g transform="matrix(225,0,0,225,17.8875,179.775)">
            <path d="M-0.004,-0L0.233,-0.741L0.408,-0.741L0.645,-0L0.489,-0L0.384,-0.386C0.373,-0.425 0.362,-0.465 0.352,-0.507C0.341,-0.548 0.33,-0.589 0.319,-0.628L0.315,-0.628C0.306,-0.588 0.296,-0.547 0.285,-0.506C0.274,-0.465 0.263,-0.425 0.252,-0.386L0.146,-0L-0.004,-0ZM0.143,-0.19L0.143,-0.305L0.495,-0.305L0.495,-0.19L0.143,-0.19Z" style="fill:white;fill-rule:nonzero;"/>
        </g>
    </g>
</svg>
